# xmcd CD database file
#
# Track frame offsets:
#	150
#	22877
#	40018
#	63154
#	78579
#	99145
#	118856
#	136854
#	157420
#	183987
#	199413
#	223854
#
# Disc length: 3243 seconds
#
# Revision: 0
# Processed by: cddbd v1.4PL0 Copyright (c) Steve Scherf et al.
# Submitted via: CDex 1.50beta10
#
DISCID=a40ca90c
DTITLE=Various Artist - New Age Step 3/4 Vol. 4
DYEAR=1900
DGENRE=New Age
TTITLE0=Watta
TTITLE1=A
TTITLE2=Faahd
TTITLE3=Deh Hint
TTITLE4=The Mirror
TTITLE5=The Holy Place
TTITLE6=Roses Are Roses
TTITLE7=In Patagonia
TTITLE8=The Warm Sphere
TTITLE9=4 Eyes
TTITLE10=The First Circle
TTITLE11=Lost In You
EXTD=
EXTT0=
EXTT1=
EXTT2=
EXTT3=
EXTT4=
EXTT5=
EXTT6=
EXTT7=
EXTT8=
EXTT9=
EXTT10=
EXTT11=
PLAYORDER=
